<svg width="23" height="34" viewBox="0 0 23 34" fill="none" xmlns="http://www.w3.org/2000/svg">
<circle cx="11.5" cy="16.5" r="11.5" fill="#EB5757"/>
<path d="M12.9192 15.96C14.4192 15.42 15.3792 14.4 15.3792 12.98C15.3792 11.2 14.0192 9.8 11.2992 9.8C9.75922 9.8 8.31922 10.44 7.15922 11.46L8.09922 12.54C9.01922 11.82 10.1992 11.28 11.2392 11.28C12.7792 11.28 13.5392 12.08 13.5392 12.96C13.5392 14.2 12.9392 14.86 11.1192 15.52H9.61922L9.49922 16.94H10.3792C13.0192 16.94 13.7192 17.9 13.7192 19.42C13.7192 20.86 12.6592 21.68 10.7592 21.68C9.67922 21.68 8.57922 21.4 7.85922 21.06L7.23922 22.44C7.97922 22.84 9.31922 23.24 10.7792 23.24C14.0192 23.24 15.6392 21.56 15.6392 19.3C15.6392 17.66 14.7792 16.44 12.9192 15.96Z" fill="#F2F2F2"/>
</svg>
