<svg width="25" height="25" viewBox="0 0 25 25" fill="none" xmlns="http://www.w3.org/2000/svg">
<path d="M17.6667 24.125H7.33333C5.62111 24.1229 3.9796 23.4419 2.76887 22.2311C1.55814 21.0204 0.877051 19.3789 0.875 17.6667L0.875 7.33333C0.877051 5.62111 1.55814 3.9796 2.76887 2.76887C3.9796 1.55814 5.62111 0.877051 7.33333 0.875L17.6667 0.875C19.3789 0.877051 21.0204 1.55814 22.2311 2.76887C23.4419 3.9796 24.1229 5.62111 24.125 7.33333V17.6667C24.1229 19.3789 23.4419 21.0204 22.2311 22.2311C21.0204 23.4419 19.3789 24.1229 17.6667 24.125ZM7.33333 3.13542C6.22217 3.14253 5.15854 3.58709 4.37282 4.37282C3.58709 5.15854 3.14253 6.22217 3.13542 7.33333V17.6667C3.14253 18.7778 3.58709 19.8415 4.37282 20.6272C5.15854 21.4129 6.22217 21.8575 7.33333 21.8646H17.6667C18.7778 21.8575 19.8415 21.4129 20.6272 20.6272C21.4129 19.8415 21.8575 18.7778 21.8646 17.6667V7.33333C21.8575 6.22217 21.4129 5.15854 20.6272 4.37282C19.8415 3.58709 18.7778 3.14253 17.6667 3.13542H7.33333ZM12.5 18.3125C10.9584 18.3125 9.48 17.7001 8.38994 16.6101C7.29989 15.52 6.6875 14.0416 6.6875 12.5C6.6875 10.9584 7.29989 9.48 8.38994 8.38994C9.48 7.29989 10.9584 6.6875 12.5 6.6875H12.5129C14.0545 6.68921 15.5322 7.30324 16.6211 8.39451C17.7099 9.48577 18.3207 10.9649 18.319 12.5065C18.3172 14.048 17.7032 15.5258 16.6119 16.6146C15.5207 17.7035 14.0416 18.3142 12.5 18.3125ZM12.5 8.94792C11.7975 8.94792 11.1107 9.15624 10.5266 9.54655C9.94243 9.93686 9.48715 10.4916 9.2183 11.1407C8.94945 11.7897 8.87911 12.5039 9.01617 13.193C9.15323 13.882 9.49153 14.5149 9.9883 15.0117C10.4851 15.5085 11.118 15.8468 11.807 15.9838C12.4961 16.1209 13.2103 16.0505 13.8593 15.7817C14.5084 15.5128 15.0631 15.0576 15.4534 14.4734C15.8438 13.8893 16.0521 13.2025 16.0521 12.5C16.0507 11.5583 15.676 10.6557 15.0102 9.98981C14.3443 9.32396 13.4416 8.94928 12.5 8.94792ZM18.6354 7.65625C18.3799 7.65625 18.1302 7.58049 17.9178 7.43856C17.7054 7.29663 17.5398 7.0949 17.4421 6.85888C17.3443 6.62286 17.3187 6.36315 17.3686 6.11259C17.4184 5.86203 17.5414 5.63188 17.7221 5.45124C17.9027 5.27059 18.1329 5.14757 18.3834 5.09773C18.634 5.0479 18.8937 5.07347 19.1297 5.17124C19.3657 5.269 19.5675 5.43456 19.7094 5.64697C19.8513 5.85939 19.9271 6.10912 19.9271 6.36458C19.9271 6.70715 19.791 7.03569 19.5488 7.27793C19.3065 7.52016 18.978 7.65625 18.6354 7.65625Z" fill="black"/>
</svg>
