<svg width="13" height="25" viewBox="0 0 13 25" fill="none" xmlns="http://www.w3.org/2000/svg">
<path d="M12.3118 4.75H8.43685C8.09428 4.75 7.76574 4.88609 7.5235 5.12832C7.28127 5.37055 7.14518 5.69909 7.14518 6.04167V9.91667H12.3118C12.3842 9.91506 12.456 9.93087 12.521 9.96276C12.586 9.99465 12.6424 10.0417 12.6854 10.0999C12.7285 10.1582 12.7569 10.2259 12.7683 10.2974C12.7797 10.3689 12.7738 10.4421 12.751 10.5108L11.7952 13.3525C11.7522 13.4797 11.6706 13.5904 11.5618 13.6691C11.453 13.7478 11.3224 13.7907 11.1881 13.7917H7.14518V23.4792C7.14518 23.6504 7.07714 23.8147 6.95602 23.9358C6.8349 24.057 6.67063 24.125 6.49935 24.125H3.27018C3.0989 24.125 2.93463 24.057 2.81351 23.9358C2.69239 23.8147 2.62435 23.6504 2.62435 23.4792V13.7917H0.686849C0.515563 13.7917 0.351293 13.7236 0.230176 13.6025C0.109059 13.4814 0.0410156 13.3171 0.0410156 13.1458V10.5625C0.0410156 10.3912 0.109059 10.2269 0.230176 10.1058C0.351293 9.98471 0.515563 9.91667 0.686849 9.91667H2.62435V6.04167C2.62435 4.67138 3.16869 3.35722 4.13763 2.38828C5.10657 1.41934 6.42073 0.875 7.79102 0.875L12.3118 0.875C12.4831 0.875 12.6474 0.943043 12.7685 1.06416C12.8896 1.18528 12.9577 1.34955 12.9577 1.52083V4.10417C12.9577 4.27545 12.8896 4.43972 12.7685 4.56084C12.6474 4.68196 12.4831 4.75 12.3118 4.75Z" fill="black"/>
</svg>
