<svg width="25" height="23" viewBox="0 0 25 23" fill="none" xmlns="http://www.w3.org/2000/svg">
<path d="M24.5467 4.07994C23.9232 4.94021 23.1696 5.6907 22.3149 6.30244V6.98869C22.3191 9.00914 21.9346 11.0103 21.1838 12.8755C20.4331 14.7407 19.3311 16.4328 17.942 17.8531C16.553 19.2735 14.9046 20.3937 13.0929 21.1486C11.2812 21.9034 9.34245 22.2778 7.38952 22.2499C5.10944 22.2573 2.8587 21.7182 0.813775 20.6749C0.759739 20.6505 0.713785 20.6103 0.681578 20.5592C0.649371 20.5081 0.632319 20.4484 0.632525 20.3874V20.2499C0.632525 20.1637 0.665624 20.0811 0.724542 20.0201C0.78346 19.9592 0.863369 19.9249 0.946691 19.9249C3.18797 19.8477 5.34897 19.0431 7.12369 17.6249C6.12968 17.6042 5.1616 17.2931 4.33118 16.7275C3.50076 16.162 2.84186 15.365 2.43052 14.4287C2.40963 14.3773 2.40187 14.3212 2.40798 14.2658C2.4141 14.2104 2.43388 14.1576 2.46543 14.1124C2.49699 14.0672 2.53925 14.0312 2.58815 14.0078C2.63706 13.9843 2.69097 13.9743 2.74469 13.9787C3.3613 14.0428 3.98407 13.9834 4.57894 13.8037C3.48771 13.5695 2.49652 12.983 1.74819 12.1287C0.999868 11.2744 0.533055 10.1963 0.415025 9.04994C0.41081 8.99436 0.420487 8.93859 0.443124 8.888C0.465762 8.83741 0.500599 8.79369 0.544288 8.76105C0.587976 8.72841 0.639046 8.70794 0.69259 8.70162C0.746133 8.69529 0.800348 8.70332 0.850025 8.72494C1.451 8.99945 2.09985 9.14407 2.75677 9.14994C1.80249 8.50187 1.08247 7.54519 0.709108 6.42923C0.335749 5.31328 0.330065 4.10084 0.692941 2.98119C0.730687 2.87109 0.795454 2.77304 0.880889 2.69665C0.966323 2.62026 1.06949 2.56817 1.18026 2.54548C1.29103 2.52278 1.4056 2.53028 1.51273 2.56722C1.61986 2.60416 1.71586 2.66928 1.79132 2.75619C4.43923 5.67178 8.07863 7.40901 11.9413 7.60119C11.8423 7.1925 11.7935 6.77251 11.7963 6.35119C11.8131 5.272 12.1397 4.22235 12.7347 3.33571C13.3296 2.44908 14.166 1.76551 15.1376 1.37195C16.1091 0.978387 17.1718 0.892606 18.1905 1.12551C19.2093 1.35842 20.1381 1.8995 20.8588 2.67994C21.8614 2.48171 22.8307 2.13303 23.7359 1.64494C23.7685 1.62388 23.8062 1.61271 23.8446 1.61271C23.8831 1.61271 23.9207 1.62388 23.9534 1.64494C23.9737 1.67868 23.9845 1.71766 23.9845 1.75744C23.9845 1.79721 23.9737 1.83619 23.9534 1.86994C23.5146 2.91163 22.7724 3.78562 21.8303 4.36994C22.6562 4.2711 23.4677 4.06964 24.247 3.76994C24.2791 3.74737 24.3169 3.7353 24.3557 3.7353C24.3945 3.7353 24.4324 3.74737 24.4645 3.76994C24.4916 3.78279 24.5158 3.80161 24.5352 3.82509C24.5546 3.84857 24.5688 3.87614 24.5769 3.90589C24.5849 3.93564 24.5866 3.96684 24.5818 3.99733C24.577 4.02783 24.5658 4.05687 24.5491 4.08244L24.5467 4.07994Z" fill="black"/>
</svg>
