<svg width="38" height="28" viewBox="0 0 38 28" fill="none" xmlns="http://www.w3.org/2000/svg">
<path d="M13.941 22C13.7429 23.3905 13.0497 24.6628 11.9888 25.5833C10.9279 26.5037 9.57055 27.0105 8.16601 27.0105C6.76148 27.0105 5.40411 26.5037 4.34322 25.5833C3.28232 24.6628 2.58915 23.3905 2.39102 22H0.666016V2.00004C0.666016 1.55801 0.84161 1.13409 1.15417 0.82153C1.46673 0.508969 1.89065 0.333374 2.33268 0.333374H25.666C26.108 0.333374 26.532 0.508969 26.8445 0.82153C27.1571 1.13409 27.3327 1.55801 27.3327 2.00004V5.33337H32.3327L37.3327 12.0934V22H33.941C33.7429 23.3905 33.0497 24.6628 31.9888 25.5833C30.9279 26.5037 29.5705 27.0105 28.166 27.0105C26.7615 27.0105 25.4041 26.5037 24.3432 25.5833C23.2823 24.6628 22.5891 23.3905 22.391 22H13.941ZM23.9993 3.66671H3.99935V17.0834C4.65695 16.412 5.46702 15.9095 6.3606 15.6186C7.25419 15.3276 8.20484 15.2569 9.13164 15.4124C10.0584 15.5678 10.934 15.9449 11.6837 16.5115C12.4334 17.0782 13.0352 17.8175 13.4377 18.6667H22.8943C23.1743 18.0784 23.5493 17.5434 23.9993 17.0834V3.66671ZM27.3327 13.6667H33.9993V13.1917L30.6527 8.66671H27.3327V13.6667ZM28.166 23.6667C28.8293 23.6667 29.4654 23.4032 29.9344 22.9342C30.4034 22.4652 30.6668 21.8291 30.6668 21.1659C30.6668 20.5026 30.4034 19.8665 29.9344 19.3975C29.4654 18.9285 28.8293 18.665 28.166 18.665C27.5028 18.665 26.8667 18.9285 26.3977 19.3975C25.9287 19.8665 25.6652 20.5026 25.6652 21.1659C25.6652 21.8291 25.9287 22.4652 26.3977 22.9342C26.8667 23.4032 27.5028 23.6667 28.166 23.6667ZM10.666 21.1667C10.666 20.8384 10.6014 20.5133 10.4757 20.21C10.3501 19.9067 10.1659 19.6311 9.93378 19.3989C9.70164 19.1668 9.42604 18.9826 9.12272 18.857C8.81941 18.7314 8.49432 18.6667 8.16601 18.6667C7.83771 18.6667 7.51262 18.7314 7.20931 18.857C6.90599 18.9826 6.63039 19.1668 6.39825 19.3989C6.1661 19.6311 5.98195 19.9067 5.85632 20.21C5.73068 20.5133 5.66602 20.8384 5.66602 21.1667C5.66602 21.8298 5.92941 22.4656 6.39825 22.9345C6.86709 23.4033 7.50297 23.6667 8.16601 23.6667C8.82906 23.6667 9.46494 23.4033 9.93378 22.9345C10.4026 22.4656 10.666 21.8298 10.666 21.1667Z" fill="#5B8E19"/>
</svg>
