<svg width="34" height="30" viewBox="0 0 34 30" fill="none" xmlns="http://www.w3.org/2000/svg">
<path d="M2.00065 0H32.0007C32.4427 0 32.8666 0.175595 33.1792 0.488155C33.4917 0.800716 33.6673 1.22464 33.6673 1.66667V28.3333C33.6673 28.7754 33.4917 29.1993 33.1792 29.5118C32.8666 29.8244 32.4427 30 32.0007 30H2.00065C1.55862 30 1.1347 29.8244 0.82214 29.5118C0.509579 29.1993 0.333984 28.7754 0.333984 28.3333V1.66667C0.333984 1.22464 0.509579 0.800716 0.82214 0.488155C1.1347 0.175595 1.55862 0 2.00065 0ZM30.334 13.3333H3.66732V26.6667H30.334V13.3333ZM30.334 10V3.33333H3.66732V10H30.334ZM20.334 20H27.0007V23.3333H20.334V20Z" fill="#5B8E19"/>
</svg>
